<?xml version="1.0" encoding="UTF-8"?>
<!DOCTYPE svg PUBLIC "-//W3C//DTD SVG 1.1//EN" "http://www.w3.org/Graphics/SVG/1.1/DTD/svg11.dtd">
<!-- Creator: CorelDRAW -->
<svg xmlns="http://www.w3.org/2000/svg" xml:space="preserve" width="2.45425in" height="0.717402in" style="shape-rendering:geometricPrecision; text-rendering:geometricPrecision; image-rendering:optimizeQuality; fill-rule:evenodd; clip-rule:evenodd"
viewBox="0 0 3.56927 1.04334"
 xmlns:xlink="http://www.w3.org/1999/xlink">
 <defs>
  <style type="text/css">
   <![CDATA[
    .fil1 {fill:#007CC3}
    .fil2 {fill:#F8952C}
    .fil6 {fill:white}
    .fil3 {fill:#007CC3;fill-rule:nonzero}
    .fil4 {fill:white;fill-rule:nonzero}
    .fil0 {fill:url(#id0)}
    .fil5 {fill:url(#id1)}
   ]]>
  </style>
  <linearGradient id="id0" gradientUnits="userSpaceOnUse" x1="0.0681815" y1="0.527645" x2="0.0681815" y2="0.316029">
   <stop offset="0" style="stop-color:#28166F"/>
   <stop offset="1" style="stop-color:#007CC3"/>
  </linearGradient>
  <linearGradient id="id1" gradientUnits="userSpaceOnUse" x1="0.173425" y1="0.801012" x2="0.173425" y2="0.916683">
   <stop offset="0" style="stop-color:#C2C1C1"/>
   <stop offset="1" style="stop-color:white"/>
  </linearGradient>
 </defs>
 <g id="Layer_x0020_1">
  <metadata id="CorelCorpID_0Corel-Layer"/>
  <g id="_258067184">
   <polygon id="_96372632" class="fil0" points="0.00033209,0.70028 0.136025,0.70028 0.136025,0.143394 0.00033209,0.143394 "/>
   <path id="_95624952" class="fil1" d="M0.382533 0.291764c0.211244,0 0.382545,0.168289 0.382545,0.375806 0,0.20747 -0.171307,0.375766 -0.382545,0.375766 -0.211238,0 -0.382533,-0.168295 -0.382533,-0.375766 0,-0.207516 0.171295,-0.375806 0.382533,-0.375806z"/>
   <ellipse id="_95903336" class="fil1" cx="0.065742" cy="0.0629593" rx="0.0617226" ry="0.0629536"/>
   <polygon id="_97223256" class="fil2" points="0.932331,0.672116 3.56927,0.672116 3.56927,0.98211 0.932331,0.98211 "/>
   <path id="_92707320" class="fil3" d="M1.09808 0.185822l0 0.145203 0.0260748 0c0.0248953,0 0.0427881,-0.00561118 0.0534264,-0.0169538 0.0106383,-0.0113426 0.0158945,-0.0301629 0.0158945,-0.0567015 0,-0.0257198 -0.00537642,-0.0441909 -0.0161293,-0.055064 -0.0107586,-0.0109876 -0.0293442,-0.0164843 -0.0558827,-0.0164843l-0.0233837 0zm-0.111531 -0.0813678l0.12147 0c0.0328483,0 0.0586883,0.00163755 0.0776289,0.00491264 0.0188203,0.00338961 0.0344858,0.00865152 0.0469965,0.0160148 0.0229142,0.0132092 0.0402115,0.0312165 0.0519091,0.0541307 0.0118064,0.022794 0.0176466,0.0496875 0.0176466,0.0804288 0,0.0509758 -0.014841,0.0892005 -0.0445401,0.114806 -0.0296934,0.0256053 -0.0738843,0.0383449 -0.132807,0.0383449l-0.0267733 0 0 0.178166 -0.111531 0 0 -0.486804zm0.730323 0.0958652l-0.0582245 0.19804 0.110013 0 -0.0517889 -0.19804zm-0.0626677 -0.0958652l0.129183 0 0.150935 0.486804 -0.115745 0 -0.0280559 -0.108719 -0.156426 0 -0.0294587 0.108719 -0.108719 0 0.158287 -0.486804zm0.47103 0l0.324068 0 0 0.0869789 -0.10592 0 0 0.399825 -0.112229 0 0 -0.399825 -0.10592 0 0 -0.0869789zm0.569689 0l0.277072 0 0 0.0813678 -0.165541 0 0 0.116443 0.156426 0 0 0.0813678 -0.156426 0 0 0.125559 0.173259 0 0 0.0820663 -0.28479 0 0 -0.486804zm0.549357 0l0.111531 0 0 0.398428 0.159231 0 0 0.088376 -0.270762 0 0 -0.486804z"/>
   <path id="_96371432" class="fil4" d="M1.01428 0.81764l0.011022 0c0.0137531,0 0.023441,-0.00186085 0.0291609,-0.00562835 0.00567416,-0.0037675 0.00853128,-0.0101116 0.00853128,-0.0189692 0,-0.0097394 -0.00261091,-0.0165301 -0.0078671,-0.0204636 -0.00526191,-0.00393927 -0.0152017,-0.00588601 -0.0298251,-0.00588601l-0.011022 0 0 0.0509472zm0 0.0785393l0.00994552 0c0.0101058,0 0.0176867,-0.000417975 0.0226966,-0.00120239 0.00500998,-0.000830225 0.00894925,-0.00223874 0.0118865,-0.00426564 0.0035671,-0.0023189 0.00629826,-0.00550811 0.00824499,-0.00944739 0.00194673,-0.00397363 0.0028972,-0.00832515 0.0028972,-0.013129 0,-0.00563408 -0.00115659,-0.010604 -0.00351557,-0.0147837 -0.00236471,-0.00422556 -0.00571996,-0.00750065 -0.0100658,-0.00981956 -0.00273688,-0.00140852 -0.00588601,-0.00240479 -0.00940731,-0.00306324 -0.0035213,-0.0006241 -0.00819919,-0.00095619 -0.0140394,-0.00095619l-0.00869732 0 -0.00994552 0 0 0.0566671zm-0.0283307 0.0241052l0 -0.177697 0.0448207 0c0.0127969,0 0.0222443,0.00070426 0.0283307,0.0020727 0.00613221,0.00136271 0.0113082,0.00364154 0.0156197,0.00679067 0.00550239,0.00405951 0.00977375,0.0093615 0.0127969,0.015906 0.00302316,0.00658454 0.00455192,0.0137932 0.00455192,0.0217462 0,0.00948747 -0.00219294,0.0173946 -0.00653874,0.023733 -0.0043916,0.00637842 -0.0107299,0.0108158 -0.0190551,0.0132951 0.010352,0.00162037 0.0184711,0.00634406 0.0243972,0.0141711 0.00592036,0.00778694 0.00890345,0.0176466 0.00890345,0.0295331 0,0.00716284 -0.00124247,0.0139993 -0.0037675,0.0205037 -0.00248495,0.00645858 -0.00604633,0.0119724 -0.0106498,0.0164843 -0.00488401,0.00492982 -0.0108903,0.00841104 -0.0180989,0.0104379 -0.00720292,0.00203262 -0.0192612,0.00302316 -0.0362436,0.00302316l-0.0450669 0zm0.199557 -0.101894l0.00526191 0c0.0152819,0 0.0254335,-0.00178069 0.0304435,-0.00534207 0.0050157,-0.0035671 0.00754073,-0.00985964 0.00754073,-0.0189349 0,-0.00977375 -0.00269107,-0.0166503 -0.00807895,-0.020664 -0.00538215,-0.00401943 -0.0153678,-0.00600625 -0.0299053,-0.00600625l-0.00526191 0 0 0.0509472zm-0.00173488 0.0223645l0 0.0795298 -0.027094 0 0 -0.177697 0.040263 0c0.0118064,0 0.020956,0.000784419 0.0275062,0.0023189 0.00649866,0.00153448 0.0120526,0.00405951 0.0166503,0.00762089 0.00550811,0.00431144 0.00973367,0.00985964 0.0127568,0.0166503 0.00298308,0.00679639 0.00447176,0.0142112 0.00447176,0.0223302 0,0.0142054 -0.00343541,0.0253476 -0.010312,0.0334266 -0.00687655,0.00803314 -0.0170225,0.0128828 -0.0304435,0.0144974l0.0611389 0.0808525 -0.032562 0 -0.0591464 -0.0795298 -0.00322929 0zm0.177147 0.00969359l0.0495444 0 -0.0182249 -0.0405093c-0.00103635,-0.00257083 -0.00215858,-0.00554819 -0.00327509,-0.00890345 -0.00111651,-0.00335525 -0.00227882,-0.0070884 -0.00339533,-0.0112281 -0.00095619,0.00389347 -0.00198681,0.00749493 -0.00310905,0.0108502 -0.00107643,0.00335525 -0.00219294,0.0064643 -0.00330945,0.00928134l-0.0182306 0.0405093zm0.0798619 0.0698362l-0.0201258 -0.0457311 -0.0704203 0 -0.0206297 0.0457311 -0.0303175 0 0.0860342 -0.184659 0.0859483 0.184659 -0.0304893 0zm0.0645285 -0.0355794l0.0230344 -0.0106498c0.00219294,0.00791863 0.00621237,0.013965 0.0120526,0.0181046 0.00580012,0.00418548 0.013255,0.00625245 0.0223245,0.00625245 0.00861144,0 0.0154021,-0.00239906 0.020498,-0.00716284 0.00505578,-0.00476377 0.00758081,-0.0111422 0.00758081,-0.0191353 0,-0.0104437 -0.00865724,-0.0197594 -0.0260061,-0.0279185 -0.00244487,-0.00120239 -0.00431144,-0.00211278 -0.005594,-0.00265099 -0.0195933,-0.00956763 -0.0326364,-0.0181848 -0.0391408,-0.0259316 -0.00650438,-0.00774686 -0.00977948,-0.0171885 -0.00977948,-0.0283307 0,-0.0144974 0.00492982,-0.0262179 0.0147494,-0.035213 0.00981956,-0.00898361 0.0227424,-0.0134554 0.0386885,-0.0134554 0.0130832,0 0.0240593,0.00252503 0.0328826,0.00757509 0.00882329,0.00505578 0.0149097,0.0123045 0.018305,0.0217462l-0.0225306 0.0116861c-0.00356138,-0.005594 -0.00745485,-0.00969932 -0.0117205,-0.0122644 -0.00426564,-0.00261091 -0.00915538,-0.00389347 -0.0146578,-0.00389347 -0.00774686,0 -0.0139592,0.00202689 -0.0185169,0.00609213 -0.00459773,0.00401371 -0.00687655,0.00944166 -0.00687655,0.0162323 0,0.0106899 0.0100658,0.0206697 0.0301515,0.0298652 0.00152876,0.000750065 0.00273115,0.00132836 0.00364154,0.00170053 0.0175607,0.00811903 0.029619,0.0160319 0.0361635,0.023733 0.00654446,0.00774686 0.00981383,0.0174004 0.00981383,0.0289548 0,0.0168163 -0.00530199,0.0301973 -0.015906,0.040097 -0.010604,0.00989972 -0.0249297,0.0148696 -0.0429885,0.0148696 -0.0151158,0 -0.0275062,-0.00348122 -0.0371941,-0.0104379 -0.00965351,-0.00696244 -0.0159919,-0.0169022 -0.0189749,-0.0298652zm0.163938 0l0.0230287 -0.0106498c0.00219866,0.00791863 0.00621237,0.013965 0.0120526,0.0181046 0.00580012,0.00418548 0.013255,0.00625245 0.0223302,0.00625245 0.00861144,0 0.0154078,-0.00239906 0.020498,-0.00716284 0.00505578,-0.00476377 0.00758654,-0.0111422 0.00758654,-0.0191353 0,-0.0104437 -0.00866297,-0.0197594 -0.0260175,-0.0279185 -0.00244487,-0.00120239 -0.00430572,-0.00211278 -0.005594,-0.00265099 -0.0195876,-0.00956763 -0.0326364,-0.0181848 -0.0391408,-0.0259316 -0.00649866,-0.00774686 -0.00977375,-0.0171885 -0.00977375,-0.0283307 0,-0.0144974 0.00492982,-0.0262179 0.0147437,-0.035213 0.00981956,-0.00898361 0.0227424,-0.0134554 0.0386885,-0.0134554 0.0130889,0 0.0240708,0.00252503 0.0328884,0.00757509 0.00882329,0.00505578 0.0149154,0.0123045 0.0183108,0.0217462l-0.0225363 0.0116861c-0.00356138,-0.005594 -0.00745485,-0.00969932 -0.0117205,-0.0122644 -0.00426564,-0.00261091 -0.00915538,-0.00389347 -0.0146635,-0.00389347 -0.00774686,0 -0.0139592,0.00202689 -0.0185169,0.00609213 -0.00459773,0.00401371 -0.00687083,0.00944166 -0.00687083,0.0162323 0,0.0106899 0.0100658,0.0206697 0.0301515,0.0298652 0.00153448,0.000750065 0.00273688,0.00132836 0.00364154,0.00170053 0.0175664,0.00811903 0.029619,0.0160319 0.0361635,0.023733 0.00654446,0.00774686 0.00981956,0.0174004 0.00981956,0.0289548 0,0.0168163 -0.00530199,0.0301973 -0.015906,0.040097 -0.010604,0.00989972 -0.0249354,0.0148696 -0.0429942,0.0148696 -0.0151215,0 -0.0275062,-0.00348122 -0.0371998,-0.0104379 -0.00965351,-0.00696244 -0.0159861,-0.0169022 -0.0189692,-0.0298652zm0.24964 0.0355794l0 -0.177697 0.0288288 0 0 0.177697 -0.0288288 0zm0.097915 0l0 -0.184659 0.112916 0.108571c0.00306324,0.00306324 0.00616657,0.00633834 0.0093615,0.00981383 0.0031434,0.00348122 0.00645858,0.00741477 0.0099398,0.0117663l0 -0.123188 0.0265901 0 0 0.184653 -0.115109 -0.110592c-0.00306324,-0.00302316 -0.00604633,-0.00617229 -0.00890345,-0.00948747 -0.00290292,-0.00330945 -0.005594,-0.00679067 -0.00820491,-0.0104379l0 0.12356 -0.0265901 0zm0.255978 -0.0260977l0.024317 0c0.0133351,0 0.0233608,-0.000864579 0.0300255,-0.00264527 0.00671051,-0.00178642 0.0125106,-0.00480958 0.0174404,-0.00899506 0.00671051,-0.00575432 0.0117663,-0.0128771 0.0151215,-0.0214542 0.00335525,-0.00853128 0.00505006,-0.0184711 0.00505006,-0.0297793 0,-0.0113483 -0.0016948,-0.021248 -0.00505006,-0.0297793 -0.00335525,-0.00857708 -0.00841104,-0.0156998 -0.0151215,-0.0214599 -0.00500998,-0.00418548 -0.0110162,-0.00720864 -0.0180187,-0.00898933 -0.00699679,-0.00178069 -0.0179787,-0.00265099 -0.0328884,-0.00265099l-0.0104379 0 -0.0104379 0 0 0.125753zm-0.0288288 0.0260977l0 -0.177697 0.0388946 0c0.0253476,0 0.0431602,0.00128255 0.053518,0.00380758 0.010312,0.00257083 0.0193414,0.00683647 0.0271283,0.0128026 0.0102719,0.0078671 0.0180588,0.0179329 0.0233608,0.0302374 0.00530199,0.0123045 0.00795298,0.0263439 0.00795298,0.0421239 0,0.0157857 -0.00265099,0.029745 -0.00795298,0.0419235 -0.00530199,0.0121728 -0.0130889,0.0222386 -0.0233608,0.0301916 -0.00778694,0.00596617 -0.0166102,0.0102318 -0.02655,0.0128026 -0.00989972,0.00252503 -0.0253476,0.00380758 -0.0463094,0.00380758l-0.00778694 0 -0.0388946 0zm0.210745 -0.177697l0.0285826 0 0 0.107901c0,0.0159919 0.00368734,0.0280444 0.0110964,0.0360776 0.00741477,0.00807895 0.0184768,0.0120984 0.0332204,0.0120984 0.0146234,0 0.0256396,-0.00401943 0.0330544,-0.0120984 0.00741477,-0.00803314 0.0111021,-0.0200857 0.0111021,-0.0360776l0 -0.107901 0.0288288 0 0 0.110552c0,0.024025 -0.00604633,0.0420437 -0.0181848,0.0539761 -0.0121327,0.0119266 -0.0304435,0.0178928 -0.0548807,0.0178928 -0.024443,0 -0.0426678,-0.00596617 -0.0547204,-0.0178527 -0.0120526,-0.0118865 -0.0180989,-0.0299053 -0.0180989,-0.0540162l0 -0.110552zm0.203027 0.142117l0.0230344 -0.0106498c0.00219294,0.00791863 0.00621237,0.013965 0.0120526,0.0181046 0.00580012,0.00418548 0.013255,0.00625245 0.0223245,0.00625245 0.00861716,0 0.0154078,-0.00239906 0.0205037,-0.00716284 0.00505578,-0.00476377 0.00758081,-0.0111422 0.00758081,-0.0191353 0,-0.0104437 -0.00865724,-0.0197594 -0.0260118,-0.0279185 -0.00244487,-0.00120239 -0.00431144,-0.00211278 -0.005594,-0.00265099 -0.0195933,-0.00956763 -0.0326364,-0.0181848 -0.0391408,-0.0259316 -0.00650438,-0.00774686 -0.00977375,-0.0171885 -0.00977375,-0.0283307 0,-0.0144974 0.00492982,-0.0262179 0.0147437,-0.035213 0.00981956,-0.00898361 0.0227424,-0.0134554 0.0386885,-0.0134554 0.0130889,0 0.0240651,0.00252503 0.0328884,0.00757509 0.00882329,0.00505578 0.0149154,0.0123045 0.018305,0.0217462l-0.0225306 0.0116861c-0.00356138,-0.005594 -0.00745485,-0.00969932 -0.0117205,-0.0122644 -0.00426564,-0.00261091 -0.00915538,-0.00389347 -0.0146635,-0.00389347 -0.00774686,0 -0.0139592,0.00202689 -0.0185169,0.00609213 -0.00459773,0.00401371 -0.00687655,0.00944166 -0.00687655,0.0162323 0,0.0106899 0.0100658,0.0206697 0.0301572,0.0298652 0.00153448,0.000750065 0.00273115,0.00132836 0.00364154,0.00170053 0.0175664,0.00811903 0.029619,0.0160319 0.0361635,0.023733 0.00654446,0.00774686 0.00981383,0.0174004 0.00981383,0.0289548 0,0.0168163 -0.00529626,0.0301973 -0.0159002,0.040097 -0.010604,0.00989972 -0.0249354,0.0148696 -0.0429999,0.0148696 -0.0151158,0 -0.0275005,-0.00348122 -0.0371941,-0.0104379 -0.00965351,-0.00696244 -0.0159919,-0.0169022 -0.0189749,-0.0298652zm0.231541 -0.117514l0 0.153093 -0.0288288 0 0 -0.153093 -0.0472198 0 0 -0.0246033 0.123022 0 0 0.0246033 -0.0469736 0zm0.125421 0.0511991l0.00526191 0c0.0152819,0 0.0254278,-0.00178069 0.0304435,-0.00534207 0.00500998,-0.0035671 0.00753501,-0.00985964 0.00753501,-0.0189349 0,-0.00977375 -0.00269107,-0.0166503 -0.00807322,-0.020664 -0.00538787,-0.00401943 -0.0153735,-0.00600625 -0.0299053,-0.00600625l-0.00526191 0 0 0.0509472zm-0.00174061 0.0223645l0 0.0795298 -0.0270882 0 0 -0.177697 0.0402573 0c0.0118064,0 0.0209617,0.000784419 0.0275062,0.0023189 0.00650438,0.00153448 0.0120526,0.00405951 0.0166503,0.00762089 0.00550811,0.00431144 0.00973367,0.00985964 0.0127568,0.0166503 0.00298308,0.00679639 0.00447749,0.0142112 0.00447749,0.0223302 0,0.0142054 -0.00344114,0.0253476 -0.0103177,0.0334266 -0.00687655,0.00803314 -0.0170225,0.0128828 -0.0304435,0.0144974l0.0611389 0.0808525 -0.0325563 0 -0.0591521 -0.0795298 -0.00322929 0zm0.140119 0.0795298l0 -0.177697 0.0288288 0 0 0.177697 -0.0288288 0zm0.097915 0l0 -0.177697 0.0991632 0 0 0.0246033 -0.0703344 0 0 0.0444886 0.0703344 0 0 0.0253476 -0.0703344 0 0 0.0574115 0.0703344 0 0 0.0258458 -0.0991632 0zm0.149607 -0.0355794l0.0230344 -0.0106498c0.00219294,0.00791863 0.00621237,0.013965 0.0120526,0.0181046 0.00580012,0.00418548 0.013255,0.00625245 0.0223245,0.00625245 0.00861716,0 0.0154078,-0.00239906 0.0205037,-0.00716284 0.00505578,-0.00476377 0.00758081,-0.0111422 0.00758081,-0.0191353 0,-0.0104437 -0.00865724,-0.0197594 -0.0260118,-0.0279185 -0.00244487,-0.00120239 -0.00431144,-0.00211278 -0.005594,-0.00265099 -0.0195933,-0.00956763 -0.0326364,-0.0181848 -0.0391408,-0.0259316 -0.00650438,-0.00774686 -0.00977375,-0.0171885 -0.00977375,-0.0283307 0,-0.0144974 0.00492982,-0.0262179 0.0147437,-0.035213 0.00981956,-0.00898361 0.0227424,-0.0134554 0.0386885,-0.0134554 0.0130889,0 0.0240651,0.00252503 0.0328884,0.00757509 0.00882329,0.00505578 0.0149154,0.0123045 0.018305,0.0217462l-0.0225306 0.0116861c-0.00356138,-0.005594 -0.00745485,-0.00969932 -0.0117205,-0.0122644 -0.00426564,-0.00261091 -0.00915538,-0.00389347 -0.0146635,-0.00389347 -0.00774686,0 -0.0139592,0.00202689 -0.0185169,0.00609213 -0.00459773,0.00401371 -0.00687655,0.00944166 -0.00687655,0.0162323 0,0.0106899 0.0100658,0.0206697 0.0301572,0.0298652 0.00153448,0.000750065 0.00273115,0.00132836 0.00364154,0.00170053 0.0175664,0.00811903 0.029619,0.0160319 0.0361635,0.023733 0.00654446,0.00774686 0.00981383,0.0174004 0.00981383,0.0289548 0,0.0168163 -0.00529626,0.0301973 -0.0159002,0.040097 -0.0106097,0.00989972 -0.0249354,0.0148696 -0.0429999,0.0148696 -0.0151158,0 -0.0275005,-0.00348122 -0.0371941,-0.0104379 -0.00965351,-0.00696244 -0.0159919,-0.0169022 -0.0189749,-0.0298652z"/>
   <rect id="_258079040" class="fil5" x="0.146316" y="0.678116" width="0.0542194" height="0.361463"/>
   <path id="_95626872" class="fil6" d="M0.382533 0.427142c0.132784,0 0.240427,0.105731 0.240427,0.23615 0,0.130437 -0.107643,0.236208 -0.240427,0.236208 -0.132779,0 -0.240416,-0.105771 -0.240416,-0.236208 0,-0.13042 0.107637,-0.23615 0.240416,-0.23615z"/>
   <ellipse id="_92707848" class="fil1" cx="0.382537" cy="0.6633" rx="0.179786" ry="0.176608"/>
  </g>
 </g>
</svg>
