<?xml version="1.0" encoding="UTF-8"?>
<!DOCTYPE svg PUBLIC "-//W3C//DTD SVG 1.1//EN" "http://www.w3.org/Graphics/SVG/1.1/DTD/svg11.dtd">
<!-- Creator: CorelDRAW -->
<svg xmlns="http://www.w3.org/2000/svg" xml:space="preserve" width="1.80706in" height="0.52822in" style="shape-rendering:geometricPrecision; text-rendering:geometricPrecision; image-rendering:optimizeQuality; fill-rule:evenodd; clip-rule:evenodd"
viewBox="0 0 1.64386 0.480515"
 xmlns:xlink="http://www.w3.org/1999/xlink">
 <defs>
  <style type="text/css">
   <![CDATA[
    .fil1 {fill:#007CC3}
    .fil2 {fill:#F8952C}
    .fil6 {fill:white}
    .fil3 {fill:#007CC3;fill-rule:nonzero}
    .fil4 {fill:white;fill-rule:nonzero}
    .fil0 {fill:url(#id0)}
    .fil5 {fill:url(#id1)}
   ]]>
  </style>
  <linearGradient id="id0" gradientUnits="userSpaceOnUse" x1="0.0314021" y1="0.243012" x2="0.0314021" y2="0.14555">
   <stop offset="0" style="stop-color:#28166F"/>
   <stop offset="1" style="stop-color:#007CC3"/>
  </linearGradient>
  <linearGradient id="id1" gradientUnits="userSpaceOnUse" x1="0.0798733" y1="0.368913" x2="0.0798733" y2="0.422184">
   <stop offset="0" style="stop-color:#C2C1C1"/>
   <stop offset="1" style="stop-color:white"/>
  </linearGradient>
 </defs>
 <g id="Layer_x0020_1">
  <metadata id="CorelCorpID_0Corel-Layer"/>
  <g id="_258075248">
   <polygon id="_96372632" class="fil0" points="0.000154002,0.32252 0.0626466,0.32252 0.0626466,0.0660418 0.000154002,0.0660418 "/>
   <path id="_95624952" class="fil1" d="M0.176178 0.134372c0.0972898,0 0.176185,0.0775095 0.176185,0.173084 0,0.0955493 -0.0788956,0.173059 -0.176185,0.173059 -0.0972863,0 -0.176178,-0.0775095 -0.176178,-0.173059 0,-0.0955743 0.078892,-0.173084 0.176178,-0.173084z"/>
   <ellipse id="_95903336" class="fil1" cx="0.030278" cy="0.0289964" rx="0.0284268" ry="0.0289938"/>
   <polygon id="_97223256" class="fil2" points="0.429393,0.309548 1.64386,0.309548 1.64386,0.452318 0.429393,0.452318 "/>
   <path id="_92707320" class="fil3" d="M0.505732 0.0855821l0 0.0668727 0.0120086 0c0.0114642,0 0.0197051,-0.00258222 0.0246045,-0.00780754 0.00489941,-0.00522532 0.00732047,-0.0138924 0.00732047,-0.0261159 0,-0.0118438 -0.00247478,-0.0203497 -0.00742791,-0.0253602 -0.00495671,-0.00505699 -0.0135164,-0.00758907 -0.0257362,-0.00758907l-0.0107694 0zm-0.0513686 -0.0374762l0.0559457 0c0.015128,0 0.0270291,0.000755684 0.0357535,0.00226347 0.00866709,0.00156151 0.0158801,0.00398256 0.0216426,0.00737419 0.0105545,0.00608487 0.0185196,0.0143795 0.0239061,0.0249304 0.00544021,0.0104972 0.00812987,0.0228854 0.00812987,0.0370428 0,0.0234763 -0.00683697,0.0410827 -0.0205145,0.0528728 -0.0136739,0.0117937 -0.0340273,0.0176601 -0.0611639,0.0176601l-0.0123309 0 0 0.082058 -0.0513686 0 0 -0.224202zm0.336358 0.044152l-0.0268142 0.0912086 0.0506666 0 -0.0238524 -0.0912086zm-0.0288628 -0.044152l0.0594985 0 0.0695122 0.224202 -0.0533062 0 -0.0129218 -0.0500721 -0.0720443 0 -0.0135665 0.0500721 -0.0500721 0 0.0729002 -0.224202zm0.216935 0l0.149253 0 0 0.0400584 -0.0487828 0 0 0.184143 -0.0516874 0 0 -0.184143 -0.0487828 0 0 -0.0400584zm0.262376 0l0.127607 0 0 0.0374762 -0.0762417 0 0 0.0536285 0.0720443 0 0 0.0374726 -0.0720443 0 0 0.0578259 0.0797981 0 0 0.0377985 -0.131163 0 0 -0.224202zm0.253011 0l0.051365 0 0 0.183499 0.0733336 0 0 0.0407031 -0.124699 0 0 -0.224202z"/>
   <path id="_96371432" class="fil4" d="M0.467135 0.376571l0.0050749 0c0.00633557,0 0.0107945,-0.000855964 0.0134304,-0.00259296 0.00261445,-0.00173342 0.00392884,-0.00465587 0.00392884,-0.00873513 0,-0.00448755 -0.00120336,-0.00761414 -0.00362442,-0.00942635 -0.00242105,-0.00181221 -0.00700172,-0.00271115 -0.0137348,-0.00271115l-0.0050749 0 0 0.0234656zm0 0.0361726l0.00458066 0c0.00465229,0 0.0081442,-0.000193398 0.0104506,-0.000555123 0.00230645,-0.000383214 0.00412224,-0.00103146 0.00547602,-0.00196263 0.0016403,-0.00107085 0.00290097,-0.00253924 0.00379633,-0.00435145 0.00089536,-0.00183012 0.00133588,-0.00383572 0.00133588,-0.00604905 0,-0.00259296 -0.000533635,-0.0048815 -0.00162239,-0.00680832 -0.00108876,-0.00194472 -0.00263236,-0.00345251 -0.00463438,-0.00451978 -0.00126067,-0.000651822 -0.00271115,-0.00111025 -0.00433354,-0.00141109 -0.00161881,-0.000290097 -0.00377484,-0.000440517 -0.0064645,-0.000440517l-0.00400405 0 -0.00458066 0 0 0.026098zm-0.0130508 0.0111025l0 -0.0818395 0.0206434 0c0.00589505,0 0.0102465,0.00032233 0.0130472,0.000952663 0.00282576,0.000626752 0.00520742,0.0016797 0.00719512,0.0031266 0.00253208,0.00187309 0.00450187,0.00431206 0.00589505,0.00732763 0.0013896,0.00303348 0.00209514,0.00635348 0.00209514,0.0100137 0,0.00436936 -0.00100997,0.00801168 -0.00301199,0.0109306 -0.00202351,0.00294036 -0.00494239,0.00498178 -0.00877453,0.00612426 0.0047669,0.00074494 0.00850592,0.00292246 0.011235,0.00652539 0.00272548,0.0035886 0.00410075,0.00812987 0.00410075,0.0136023 0,0.00329851 -0.000573031,0.00644659 -0.001737,0.00944426 -0.00114248,0.0029726 -0.00278278,0.00551184 -0.00490299,0.00759266 -0.00224914,0.00227063 -0.00501402,0.00387154 -0.00833401,0.00480629 -0.00332,0.000934756 -0.00887123,0.00139318 -0.0166931,0.00139318l-0.020758 0zm0.0919069 -0.0469312l0.00242464 0c0.00703753,0 0.0117149,-0.000816569 0.0140213,-0.00245687 0.00231003,-0.00164388 0.003474,-0.00454127 0.003474,-0.00872081 0,-0.00450187 -0.00123918,-0.00767145 -0.00372112,-0.00951947 -0.00247836,-0.00185161 -0.00707693,-0.00276487 -0.0137742,-0.00276487l-0.00242464 0 0 0.023462zm-0.000798661 0.0103002l0 0.036631 -0.0124777 0 0 -0.0818395 0.0185447 0c0.00543663,0 0.00965198,0.000361726 0.0126676,0.00106727 0.00299408,0.000705544 0.00555123,0.00186951 0.00766787,0.00350981 0.00253566,0.00198412 0.00448396,0.00454127 0.00587714,0.00766787 0.00137169,0.00313018 0.00205933,0.00654687 0.00205933,0.0102859 0,0.00653971 -0.001583,0.0116719 -0.00474899,0.015393 -0.00316958,0.00369963 -0.00783977,0.00593445 -0.0140213,0.00667581l0.0281573 0.0372398 -0.0149955 0 -0.0272404 -0.036631 -0.00148988 0zm0.0815888 0.00446606l0.0228174 0 -0.0083949 -0.0186557c-0.000476332,-0.00118546 -0.000992059,-0.00255715 -0.00150779,-0.00410075 -0.000515728,-0.00154718 -0.00104936,-0.00326627 -0.00156509,-0.0051716 -0.000440517,0.0017943 -0.000913267,0.00345251 -0.00142899,0.00499611 -0.00049782,0.00154718 -0.00100997,0.00297618 -0.00152569,0.00427624l-0.0083949 0.0186557zm0.0367778 0.0321649l-0.00926877 -0.0210625 -0.0324299 0 -0.00950156 0.0210625 -0.013964 0 0.0396251 -0.0850485 0.0395821 0.0850485 -0.0140428 0zm0.0297188 -0.0163887l0.0106118 -0.00490299c0.00100997,0.00364591 0.00285799,0.00643227 0.00554765,0.00833759 0.00267176,0.00192682 0.00610636,0.00287948 0.0102823,0.00287948 0.00396824,0 0.00709842,-0.00110667 0.00944426,-0.00329851 0.00232794,-0.00219542 0.00349191,-0.00513221 0.00349191,-0.00881393 0,-0.00480988 -0.00398614,-0.00910044 -0.0119799,-0.0128574 -0.00112815,-0.000555123 -0.0019877,-0.000974152 -0.00257864,-0.00122127 -0.00902165,-0.00440517 -0.0150277,-0.00837341 -0.0180254,-0.0119441 -0.00299408,-0.00356712 -0.00450187,-0.00791498 -0.00450187,-0.0130472 0,-0.00667581 0.00227063,-0.012073 0.00679041,-0.0162168 0.00452336,-0.00413656 0.0104757,-0.00619589 0.0178177,-0.00619589 0.00603115,0 0.0110846,0.00116039 0.0151495,0.00348832 0.00406135,0.00232794 0.00686562,0.00566584 0.00843071,0.0100137l-0.010379 0.00538291c-0.0016403,-0.00257506 -0.00343102,-0.00446606 -0.00539723,-0.00564793 -0.00196263,-0.00120336 -0.00421536,-0.0017943 -0.0067546,-0.0017943 -0.00356712,0 -0.00642869,0.000934756 -0.00852741,0.00280785 -0.00211663,0.00184802 -0.00316599,0.00434787 -0.00316599,0.00747447 0,0.00492448 0.00463438,0.00951947 0.0138888,0.0137563 0.000705544,0.000343818 0.00125709,0.000608845 0.00167611,0.000780754 0.00809048,0.00373902 0.0136417,0.00738493 0.0166573,0.0109306 0.00301199,0.00356712 0.00451978,0.00801527 0.00451978,0.0133373 0,0.00774308 -0.00244254,0.0139067 -0.00732763,0.0184659 -0.0048815,0.00455917 -0.0114785,0.00684772 -0.0197982,0.00684772 -0.00696232,0 -0.0126711,-0.00160449 -0.01713,-0.00480629 -0.00444815,-0.00320897 -0.00736702,-0.00778605 -0.0087423,-0.0137563zm0.0755075 0l0.0106046 -0.00490299c0.00101355,0.00364591 0.00286157,0.00643227 0.00555123,0.00833759 0.00267176,0.00192682 0.00610636,0.00287948 0.0102859,0.00287948 0.00396466,0 0.00709483,-0.00110667 0.00944068,-0.00329851 0.00232794,-0.00219542 0.00349191,-0.00513221 0.00349191,-0.00881393 0,-0.00480988 -0.00398973,-0.00910044 -0.0119835,-0.0128574 -0.00112457,-0.000555123 -0.00198054,-0.000974152 -0.00257506,-0.00122127 -0.00902165,-0.00440517 -0.0150313,-0.00837341 -0.0180254,-0.0119441 -0.00299408,-0.00356712 -0.00450187,-0.00791498 -0.00450187,-0.0130472 0,-0.00667581 0.00227063,-0.012073 0.00679041,-0.0162168 0.00452336,-0.00413656 0.0104721,-0.00619589 0.0178177,-0.00619589 0.00602757,0 0.0110846,0.00116039 0.0151459,0.00348832 0.00406494,0.00232794 0.0068692,0.00566584 0.00843429,0.0100137l-0.010379 0.00538291c-0.0016403,-0.00257506 -0.0034346,-0.00446606 -0.00539723,-0.00564793 -0.00196621,-0.00120336 -0.00421894,-0.0017943 -0.0067546,-0.0017943 -0.00356712,0 -0.00642869,0.000934756 -0.00852741,0.00280785 -0.00211663,0.00184802 -0.00316599,0.00434787 -0.00316599,0.00747447 0,0.00492448 0.00463797,0.00951947 0.0138888,0.0137563 0.000705544,0.000343818 0.00126067,0.000608845 0.00167611,0.000780754 0.00809048,0.00373902 0.0136417,0.00738493 0.0166537,0.0109306 0.00301557,0.00356712 0.00452336,0.00801527 0.00452336,0.0133373 0,0.00774308 -0.00244254,0.0139067 -0.00732405,0.0184659 -0.00488509,0.00455917 -0.0114857,0.00684772 -0.0198018,0.00684772 -0.0069659,0 -0.0126676,-0.00160449 -0.0171336,-0.00480629 -0.00444457,-0.00320897 -0.00736344,-0.00778605 -0.00873513,-0.0137563zm0.114971 0.0163887l0 -0.0818395 0.0132764 0 0 0.0818395 -0.0132764 0zm0.0450975 0l0 -0.0850485 0.0520025 0.0500041c0.00141109,0.00141109 0.00284008,0.00291887 0.00431206,0.00451978 0.0014469,0.00160449 0.0029726,0.00341311 0.00457708,0.00541872l0 -0.0567336 0.0122449 0 0 0.0850413 -0.0530125 -0.0509317c-0.00141109,-0.00139318 -0.00278636,-0.00284366 -0.00410075,-0.00436936 -0.00133588,-0.00152569 -0.00257506,-0.00313018 -0.00377842,-0.00480988l0 0.0569091 -0.0122449 0zm0.11789 -0.0120193l0.0111992 0c0.00614217,0 0.0107586,-0.000401121 0.0138279,-0.00122127 0.00309078,-0.00082015 0.00576254,-0.00221333 0.00803317,-0.00414015 0.00309078,-0.00265027 0.00541872,-0.00593087 0.0069659,-0.0098812 0.0015436,-0.00392884 0.00232436,-0.0085095 0.00232436,-0.0137169 0,-0.00522532 -0.000780754,-0.0097845 -0.00232436,-0.0137133 -0.00154718,-0.00395033 -0.00387512,-0.00723093 -0.0069659,-0.00988478 -0.00230645,-0.00192682 -0.0050749,-0.00332 -0.0082982,-0.00414015 -0.0032233,-0.00082015 -0.00828029,-0.00122127 -0.0151459,-0.00122127l-0.00480988 0 -0.00480629 0 0 0.0579191zm-0.0132764 0.0120193l0 -0.0818395 0.0179108 0c0.0116755,0 0.0198806,0.000590938 0.0246511,0.00175132 0.00474899,0.00118546 0.00890704,0.00314809 0.0124921,0.00589863 0.00473108,0.00362084 0.00831611,0.0082588 0.0107586,0.0139246 0.00244254,0.00566584 0.00366381,0.0121339 0.00366381,0.0194007 0,0.00727033 -0.00122127,0.013699 -0.00366381,0.0193075 -0.00244254,0.00560496 -0.00602757,0.0102429 -0.0107586,0.0139067 -0.00358502,0.00274697 -0.00764996,0.00470959 -0.012227,0.00589505 -0.00455917,0.00116397 -0.0116755,0.00175491 -0.0213275,0.00175491l-0.0035886 0 -0.0179108 0zm0.0970606 -0.0818395l0.0131618 0 0 0.0496925c0,0.00736702 0.0016976,0.0129183 0.00511072,0.0166179 0.00341669,0.00371754 0.0085095,0.00556914 0.0152999,0.00556914 0.00673669,0 0.011808,-0.00185161 0.0152247,-0.00556914 0.00341311,-0.00369963 0.00511072,-0.00925086 0.00511072,-0.0166179l0 -0.0496925 0.01328 0 0 0.0509138c0,0.0110667 -0.00278636,0.0193649 -0.00837699,0.0248588 -0.00558705,0.00549393 -0.0140213,0.0082409 -0.0252742,0.0082409 -0.0112565,0 -0.0196514,-0.00274697 -0.0252026,-0.00822299 -0.00555123,-0.00547244 -0.00833401,-0.0137706 -0.00833401,-0.0248767l0 -0.0509138zm0.0935078 0.0654508l0.0106082 -0.00490299c0.00100997,0.00364591 0.00286157,0.00643227 0.00555123,0.00833759 0.00267176,0.00192682 0.00610278,0.00287948 0.0102787,0.00287948 0.00397182,0 0.00709842,-0.00110667 0.00944426,-0.00329851 0.00232794,-0.00219542 0.00349191,-0.00513221 0.00349191,-0.00881393 0,-0.00480988 -0.00398614,-0.00910044 -0.0119799,-0.0128574 -0.00112457,-0.000555123 -0.00198412,-0.000974152 -0.00257506,-0.00122127 -0.00902523,-0.00440517 -0.0150313,-0.00837341 -0.018029,-0.0119441 -0.00299408,-0.00356712 -0.00450187,-0.00791498 -0.00450187,-0.0130472 0,-0.00667581 0.00227063,-0.012073 0.00679041,-0.0162168 0.00452336,-0.00413656 0.0104757,-0.00619589 0.0178213,-0.00619589 0.00602757,0 0.011081,0.00116039 0.0151459,0.00348832 0.00406135,0.00232794 0.0068692,0.00566584 0.00843071,0.0100137l-0.010379 0.00538291c-0.0016403,-0.00257506 -0.00343102,-0.00446606 -0.00539723,-0.00564793 -0.00196263,-0.00120336 -0.00421536,-0.0017943 -0.00675102,-0.0017943 -0.0035707,0 -0.00642869,0.000934756 -0.00853099,0.00280785 -0.00211663,0.00184802 -0.00316599,0.00434787 -0.00316599,0.00747447 0,0.00492448 0.00463797,0.00951947 0.0138888,0.0137563 0.000709125,0.000343818 0.00125709,0.000608845 0.00167611,0.000780754 0.00809048,0.00373902 0.0136417,0.00738493 0.0166573,0.0109306 0.00301557,0.00356712 0.00451978,0.00801527 0.00451978,0.0133373 0,0.00774308 -0.00243896,0.0139067 -0.00732405,0.0184659 -0.0048815,0.00455917 -0.0114821,0.00684772 -0.0198018,0.00684772 -0.00696232,0 -0.0126676,-0.00160449 -0.01713,-0.00480629 -0.00444815,-0.00320897 -0.00736702,-0.00778605 -0.00873872,-0.0137563zm0.106637 -0.0541192l0 0.0705078 -0.01328 0 0 -0.0705078 -0.0217465 0 0 -0.0113317 0.0566584 0 0 0.0113317 -0.0216319 0zm0.0577615 0.0235766l0.00242464 0c0.00703753,0 0.0117113,-0.000816569 0.0140213,-0.00245687 0.00230645,-0.00164388 0.00347042,-0.00454127 0.00347042,-0.00872081 0,-0.00450187 -0.00123918,-0.00767145 -0.00372112,-0.00951947 -0.00247836,-0.00185161 -0.00707693,-0.00276487 -0.0137706,-0.00276487l-0.00242464 0 0 0.023462zm-0.000802243 0.0103002l0 0.036631 -0.0124742 0 0 -0.0818395 0.0185411 0c0.00543663,0 0.00965198,0.000361726 0.0126676,0.00106727 0.00299408,0.000705544 0.00555123,0.00186951 0.00766787,0.00350981 0.00253566,0.00198412 0.00448396,0.00454127 0.00587714,0.00766787 0.00137169,0.00313018 0.00205933,0.00654687 0.00205933,0.0102859 0,0.00653971 -0.001583,0.0116719 -0.00474899,0.015393 -0.00316958,0.00369963 -0.00783977,0.00593445 -0.0140213,0.00667581l0.0281573 0.0372398 -0.0149955 0 -0.0272404 -0.036631 -0.00148988 0zm0.064534 0.036631l0 -0.0818395 0.0132764 0 0 0.0818395 -0.0132764 0zm0.0450939 0l0 -0.0818395 0.0456705 0 0 0.0113317 -0.0323906 0 0 0.0204894 0.0323906 0 0 0.0116719 -0.0323906 0 0 0.0264418 0.0323906 0 0 0.0119047 -0.0456705 0zm0.0689033 -0.0163887l0.0106082 -0.00490299c0.00100997,0.00364591 0.00286157,0.00643227 0.00555123,0.00833759 0.00267176,0.00192682 0.00610278,0.00287948 0.0102823,0.00287948 0.00396824,0 0.00709483,-0.00110667 0.00944068,-0.00329851 0.00233152,-0.00219542 0.00349191,-0.00513221 0.00349191,-0.00881393 0,-0.00480988 -0.00398614,-0.00910044 -0.0119799,-0.0128574 -0.00112457,-0.000555123 -0.00198412,-0.000974152 -0.00257506,-0.00122127 -0.00902523,-0.00440517 -0.0150313,-0.00837341 -0.0180254,-0.0119441 -0.00299767,-0.00356712 -0.00450187,-0.00791498 -0.00450187,-0.0130472 0,-0.00667581 0.00227063,-0.012073 0.00679041,-0.0162168 0.00451978,-0.00413656 0.0104721,-0.00619589 0.0178177,-0.00619589 0.00602757,0 0.0110846,0.00116039 0.0151459,0.00348832 0.00406494,0.00232794 0.0068692,0.00566584 0.00843071,0.0100137l-0.0103754 0.00538291c-0.0016403,-0.00257506 -0.0034346,-0.00446606 -0.00539723,-0.00564793 -0.00196621,-0.00120336 -0.00421894,-0.0017943 -0.0067546,-0.0017943 -0.00356712,0 -0.00642869,0.000934756 -0.00852741,0.00280785 -0.00212021,0.00184802 -0.00316958,0.00434787 -0.00316958,0.00747447 0,0.00492448 0.00463797,0.00951947 0.0138924,0.0137563 0.000705544,0.000343818 0.00125709,0.000608845 0.00167611,0.000780754 0.00809048,0.00373902 0.0136417,0.00738493 0.0166537,0.0109306 0.00301557,0.00356712 0.00451978,0.00801527 0.00451978,0.0133373 0,0.00774308 -0.00243896,0.0139067 -0.00732047,0.0184659 -0.00488867,0.00455917 -0.0114857,0.00684772 -0.0198054,0.00684772 -0.00696232,0 -0.012664,-0.00160449 -0.01713,-0.00480629 -0.00444457,-0.00320897 -0.00736344,-0.00778605 -0.00873872,-0.0137563z"/>
   <rect id="_397808880" class="fil5" x="0.0673868" y="0.312312" width="0.0249712" height="0.166474"/>
   <path id="_95626872" class="fil6" d="M0.176178 0.196721c0.0611531,0 0.110731,0.0486969 0.110731,0.108765 0,0.0600715 -0.0495779,0.108786 -0.110731,0.108786 -0.0611531,0 -0.110724,-0.0487148 -0.110724,-0.108786 0,-0.0600679 0.0495707,-0.108765 0.110724,-0.108765z"/>
   <ellipse id="_92707848" class="fil1" cx="0.17618" cy="0.305488" rx="0.0828016" ry="0.0813381"/>
  </g>
 </g>
</svg>
